<svg width="166" height="107" fill="none" xmlns="http://www.w3.org/2000/svg"><path fill-rule="evenodd" clip-rule="evenodd" d="M83.51 52.486V29.762l11.353-4.545V41.05l7.133-2.932V22.431l11.062-4.691v17.3l3.348 1.465V14.368L81.763 0 47.41 14.368v33.426c5.677 2.542 20.845 7.038 36.1 4.692zm8.442-29.762l-10.19 4.398-27.947-11.875 10.044-4.105 28.093 11.582zm18.049-7.33l-9.17 3.958L72.447 7.624l9.316-3.812L110 15.394z" fill="#fff"/><path d="M113.058 44.862l-3.057-7.33L133 45.302 122.229 67l-2.912-6.89C100.249 67 56.29 73.303 33 43.395c11.742 9.53 44.192 23.164 80.058 1.466zM1.138 88V74.91h5.241c.963 0 1.767.142 2.41.427.644.286 1.127.682 1.451 1.19.324.502.486 1.082.486 1.738 0 .511-.102.96-.307 1.349a2.647 2.647 0 01-.844.946 3.459 3.459 0 01-1.214.517v.128a2.987 2.987 0 012.467 1.515c.273.465.41 1.019.41 1.662 0 .695-.173 1.315-.518 1.86-.341.541-.846.97-1.515 1.285-.67.315-1.494.473-2.474.473H1.138zm2.768-2.263h2.256c.771 0 1.334-.147 1.687-.44.354-.3.531-.695.531-1.19 0-.362-.087-.682-.262-.959a1.78 1.78 0 00-.748-.652c-.32-.157-.701-.236-1.144-.236h-2.32v3.477zm0-5.35h2.051c.38 0 .716-.066 1.01-.198a1.68 1.68 0 00.703-.575 1.5 1.5 0 00.263-.889c0-.473-.169-.854-.505-1.144-.333-.29-.806-.435-1.42-.435H3.907v3.241zm17.218-5.478h2.768v8.501c0 .955-.228 1.79-.684 2.506-.452.716-1.085 1.274-1.898 1.675-.814.396-1.763.594-2.845.594-1.087 0-2.037-.198-2.85-.594-.815-.4-1.448-.959-1.9-1.675-.451-.716-.677-1.55-.677-2.505v-8.502h2.768v8.265c0 .499.109.942.326 1.33.221.387.533.692.933.914.4.221.867.332 1.4.332.537 0 1.004-.11 1.4-.332.4-.222.71-.527.927-.914.221-.388.332-.831.332-1.33v-8.265zM26.17 88V74.91h2.768v5.4h5.618v-5.4h2.762V88h-2.762v-5.408h-5.618V88H26.17zm13.43 0V74.91h2.768v10.808h5.612V88H39.6zm10.213 0V74.91h8.82v2.281H52.58v3.12h5.6v2.281h-5.6v3.126h6.08V88h-8.847zm11.021 0V74.91h5.165c.989 0 1.832.176 2.531.53.703.35 1.238.846 1.605 1.489.37.64.556 1.391.556 2.256 0 .87-.188 1.618-.563 2.244-.375.622-.918 1.1-1.63 1.432-.707.332-1.564.498-2.57.498H62.47v-2.224h3.011c.528 0 .967-.073 1.317-.217.35-.145.61-.363.78-.652.174-.29.262-.65.262-1.08 0-.435-.088-.802-.262-1.1a1.606 1.606 0 00-.787-.678c-.349-.157-.79-.236-1.323-.236h-1.866V88h-2.768zm7.07-5.957L71.156 88h-3.055l-3.183-5.957h2.985zm16.293-2.55h-2.8a2.736 2.736 0 00-.313-.966 2.457 2.457 0 00-.607-.729 2.672 2.672 0 00-.857-.46 3.274 3.274 0 00-1.042-.16c-.677 0-1.267.169-1.77.505-.503.333-.893.818-1.17 1.458-.277.635-.415 1.406-.415 2.313 0 .934.138 1.718.415 2.353.281.635.673 1.114 1.176 1.438.503.324 1.085.486 1.745.486.371 0 .714-.05 1.03-.147a2.73 2.73 0 00.85-.428c.247-.192.451-.425.613-.697.166-.273.281-.584.345-.933l2.8.012a5.224 5.224 0 01-1.7 3.228 5.443 5.443 0 01-1.726 1.036c-.665.251-1.417.377-2.257.377-1.167 0-2.211-.264-3.132-.793-.916-.528-1.64-1.293-2.173-2.294-.528-1.002-.793-2.214-.793-3.638 0-1.427.269-2.641.806-3.643.537-1.001 1.266-1.764 2.186-2.288.92-.529 1.956-.793 3.106-.793.759 0 1.462.107 2.11.32.652.213 1.23.524 1.732.933a4.8 4.8 0 011.227 1.49c.32.587.525 1.26.614 2.02zm14.015 1.962c0 1.427-.271 2.642-.812 3.643-.537 1.001-1.27 1.766-2.2 2.295-.924.524-1.964.786-3.118.786-1.164 0-2.208-.264-3.133-.793-.924-.528-1.655-1.293-2.192-2.294-.537-1.002-.805-2.214-.805-3.638 0-1.427.268-2.641.805-3.643.537-1.001 1.268-1.764 2.192-2.288.925-.529 1.97-.793 3.133-.793 1.154 0 2.194.264 3.119.793.929.524 1.662 1.287 2.199 2.288.541 1.001.812 2.216.812 3.643zm-2.806 0c0-.925-.139-1.705-.416-2.34-.273-.635-.658-1.116-1.157-1.444-.498-.329-1.082-.493-1.751-.493-.67 0-1.253.164-1.752.493-.498.328-.886.81-1.163 1.444-.273.635-.41 1.415-.41 2.34 0 .924.137 1.704.41 2.339.277.635.665 1.117 1.163 1.445.499.328 1.083.492 1.752.492s1.252-.164 1.751-.492c.499-.329.884-.81 1.157-1.445.277-.635.415-1.415.415-2.34zm4.856-6.546h3.413l3.605 8.795h.154l3.605-8.795h3.413V88h-2.684v-8.52h-.109l-3.388 8.456h-1.828l-3.388-8.489h-.109V88h-2.684V74.91zM116.732 88V74.91h5.164c.993 0 1.839.189 2.538.568a3.855 3.855 0 011.598 1.566c.371.665.556 1.432.556 2.301 0 .87-.187 1.636-.562 2.301a3.883 3.883 0 01-1.63 1.554c-.708.37-1.564.556-2.57.556h-3.292v-2.218h2.845c.532 0 .971-.092 1.316-.275.35-.188.61-.446.78-.774.175-.332.262-.713.262-1.144 0-.434-.087-.814-.262-1.138a1.746 1.746 0 00-.78-.76c-.349-.184-.792-.275-1.329-.275h-1.867V88h-2.767zm12.399 0h-2.966l4.519-13.09h3.567L138.763 88h-2.966l-3.279-10.1h-.102L129.131 88zm-.186-5.146h7.006v2.16h-7.006v-2.16zm22.344-7.945V88h-2.391l-5.695-8.24h-.096V88h-2.768V74.91h2.429l5.651 8.232h.115v-8.233h2.755zm1.519 0h3.1l2.985 5.638h.128l2.985-5.638h3.101l-4.775 8.463V88h-2.749v-4.628l-4.775-8.463zM1.966 105v-7.273H4.42c.473 0 .867.083 1.182.249.318.166.555.392.714.678.159.287.238.612.238.977 0 .303-.05.562-.153.777-.102.216-.24.39-.415.522-.175.133-.37.229-.586.288v.057c.234.016.462.099.682.248.22.147.4.353.543.618.142.265.213.583.213.952 0 .367-.082.695-.245.984a1.694 1.694 0 01-.753.678c-.336.163-.764.245-1.285.245h-2.59zm.664-.597h1.925c.56 0 .975-.124 1.243-.372.27-.249.404-.562.404-.938 0-.277-.067-.528-.202-.753a1.432 1.432 0 00-.565-.54 1.75 1.75 0 00-.852-.198H2.63v2.801zm0-3.391h1.85c.287 0 .538-.059.753-.177a1.29 1.29 0 00.504-.491c.12-.208.181-.446.181-.713 0-.386-.125-.7-.376-.941-.251-.244-.625-.366-1.122-.366H2.63v2.688zm10.658-3.285h.664v4.816c0 .494-.116.937-.348 1.328a2.479 2.479 0 01-.97.919c-.412.223-.89.334-1.438.334-.544 0-1.024-.112-1.438-.337a2.488 2.488 0 01-.97-.92 2.531 2.531 0 01-.347-1.324v-4.816h.664v4.769c0 .386.086.731.259 1.034.173.3.415.537.728.71.315.173.683.259 1.104.259.422 0 .79-.086 1.105-.259.315-.173.557-.41.728-.71a2.05 2.05 0 00.259-1.034v-4.769zM15.882 105v-7.273h.664v3.335h4.126v-3.335h.665V105h-.665v-3.342h-4.126V105h-.664zm7.383 0v-7.273h.664v6.676h3.466V105h-4.13zm5.625 0v-7.273h4.218v.597h-3.554v2.738h3.33v.596h-3.33v2.745h3.625V105h-4.29zm5.937 0v-7.273h2.348c.516 0 .947.094 1.292.28.348.185.61.442.785.771.177.327.266.702.266 1.126 0 .424-.089.798-.266 1.122a1.83 1.83 0 01-.781.76c-.346.183-.774.274-1.286.274h-2v-.608h1.982c.38 0 .694-.062.945-.188a1.24 1.24 0 00.565-.536 1.71 1.71 0 00.188-.824 1.75 1.75 0 00-.188-.83 1.286 1.286 0 00-.569-.555c-.25-.13-.568-.195-.951-.195H35.49V105h-.664zm3.207-3.281l1.79 3.281h-.767l-1.772-3.281h.749zM46.832 100h-.668a2.072 2.072 0 00-.27-.689 2.132 2.132 0 00-.483-.557 2.198 2.198 0 00-.66-.37 2.367 2.367 0 00-.8-.131c-.458 0-.877.12-1.256.359-.377.239-.678.59-.906 1.054-.225.462-.337 1.028-.337 1.698 0 .674.112 1.243.337 1.704.227.462.53.812.906 1.051.379.237.798.355 1.257.355.286 0 .553-.043.799-.131a2.122 2.122 0 001.143-.923c.13-.213.22-.444.27-.693h.668c-.06.334-.17.645-.334.934-.16.287-.367.538-.618.753a2.772 2.772 0 01-.86.504 3.03 3.03 0 01-1.068.181c-.61 0-1.153-.152-1.627-.458-.473-.307-.845-.741-1.115-1.299-.267-.559-.4-1.218-.4-1.978s.133-1.42.4-1.978c.27-.56.642-.991 1.115-1.296a2.917 2.917 0 011.627-.462c.388 0 .744.06 1.069.18.324.12.61.287.86.505a2.875 2.875 0 01.952 1.687zm7.522 1.364c0 .757-.135 1.417-.405 1.978-.27.558-.641.992-1.115 1.299-.471.306-1.013.458-1.626.458s-1.157-.152-1.63-.458c-.471-.307-.842-.741-1.112-1.299-.267-.561-.401-1.221-.401-1.978 0-.758.134-1.416.401-1.975.27-.56.642-.994 1.115-1.3a2.917 2.917 0 011.627-.461c.613 0 1.155.154 1.626.462.474.305.845.738 1.115 1.3.27.558.405 1.216.405 1.974zm-.646 0c0-.651-.11-1.209-.327-1.673-.218-.466-.515-.823-.891-1.069a2.289 2.289 0 00-1.282-.37c-.476 0-.902.124-1.279.37-.376.246-.674.602-.895 1.066-.217.464-.326 1.022-.326 1.676 0 .651.109 1.208.326 1.672.218.464.515.821.892 1.069.376.246.803.369 1.282.369.478 0 .905-.123 1.282-.369.378-.246.677-.601.895-1.065.217-.467.325-1.025.323-1.676zm2.252-3.637h.767l2.639 6.335h.063l2.639-6.335h.767V105h-.625v-5.87h-.057L59.7 105h-.603l-2.454-5.87h-.057V105h-.625v-7.273zM64.769 105v-7.273h2.347c.516 0 .947.1 1.293.299.348.196.61.464.784.802.178.339.267.72.267 1.144 0 .423-.088.806-.263 1.147a1.958 1.958 0 01-.781.806c-.346.196-.776.294-1.29.294H65.28v-.596h1.829c.381 0 .697-.071.948-.213a1.38 1.38 0 00.561-.59c.126-.248.188-.531.188-.848 0-.318-.063-.6-.188-.85a1.347 1.347 0 00-.565-.585c-.25-.142-.569-.213-.955-.213h-1.665V105h-.664zm5.518 0h-.696l2.646-7.273h.71L75.592 105h-.695l-2.28-6.41h-.05l-2.28 6.41zm.5-2.788h3.609v.597h-3.608v-.597zm11.716-4.485V105h-.646l-4.297-6.09h-.057V105h-.664v-7.273h.643l4.31 6.098h.058v-6.098h.653zm1.252 0h.767l2.155 3.452h.064l2.156-3.452h.767l-2.624 4.123V105h-.66v-3.15l-2.625-4.123zm10.633 0V105h-.664v-7.273h.664zm5.882 1.819a1.321 1.321 0 00-.536-.967c-.317-.239-.716-.358-1.197-.358-.338 0-.637.058-.895.174a1.466 1.466 0 00-.603.483 1.173 1.173 0 00-.217.696c0 .192.041.36.124.504.083.145.195.269.334.373.142.102.299.189.469.263.173.073.347.135.522.184l.767.221c.232.064.464.145.696.245.232.099.444.225.636.376a1.6 1.6 0 01.642 1.328c0 .388-.1.738-.301 1.048-.202.31-.49.556-.867.738-.376.18-.827.27-1.353.27-.495 0-.924-.081-1.289-.245a2.09 2.09 0 01-.86-.685 1.928 1.928 0 01-.35-1.012h.68c.025.286.12.529.285.728.166.199.381.35.646.454.266.102.561.153.888.153.362 0 .684-.06.966-.181.284-.123.507-.294.668-.511.163-.221.245-.476.245-.767a.978.978 0 00-.192-.618 1.493 1.493 0 00-.536-.423 4.746 4.746 0 00-.792-.302l-.87-.255c-.57-.171-1.014-.406-1.328-.707-.315-.301-.473-.684-.473-1.15 0-.391.105-.735.313-1.03a2.1 2.1 0 01.852-.697 2.83 2.83 0 011.211-.252c.452 0 .852.083 1.2.249.348.166.624.394.828.685.206.29.316.618.33.987h-.643zm4.713-1.222v-.597h5.273v.597h-2.305V105h-.664v-6.676h-2.304zm6.768 6.676v-7.273h.664v3.335h4.127v-3.335h.664V105h-.664v-3.342h-4.127V105h-.664zm7.383 0v-7.273h4.219v.597h-3.555v2.738h3.331v.596h-3.331v2.745h3.626V105h-4.29zm8.75 0v-7.273h2.347c.516 0 .947.1 1.293.299.348.196.609.464.785.802.177.339.266.72.266 1.144 0 .423-.088.806-.263 1.147a1.953 1.953 0 01-.781.806c-.346.196-.775.294-1.289.294h-1.847v-.596h1.829c.381 0 .697-.071.948-.213.251-.145.438-.341.561-.59.126-.248.189-.531.189-.848 0-.318-.063-.6-.189-.85a1.347 1.347 0 00-.564-.585c-.251-.142-.57-.213-.956-.213h-1.665V105h-.664zm6.25 0v-7.273h4.219v.597h-3.555v2.738h3.331v.596h-3.331v2.745h3.626V105h-4.29zm11.9-3.636c0 .757-.135 1.417-.405 1.978-.27.558-.642.992-1.115 1.299-.471.306-1.013.458-1.627.458-.613 0-1.156-.152-1.63-.458-.471-.307-.841-.741-1.111-1.299-.268-.561-.401-1.221-.401-1.978 0-.758.133-1.416.401-1.975.27-.56.642-.994 1.115-1.3a2.917 2.917 0 011.626-.461c.614 0 1.156.154 1.627.462.473.305.845.738 1.115 1.3.27.558.405 1.216.405 1.974zm-.647 0c0-.651-.108-1.209-.326-1.673-.218-.466-.515-.823-.892-1.069a2.286 2.286 0 00-1.282-.37c-.475 0-.902.124-1.278.37s-.675.602-.895 1.066c-.218.464-.327 1.022-.327 1.676 0 .651.109 1.208.327 1.672.218.464.515.821.891 1.069.377.246.804.369 1.282.369.479 0 .906-.123 1.282-.369.379-.246.677-.601.895-1.065.218-.467.326-1.025.323-1.676zM147.64 105v-7.273h2.347c.516 0 .947.1 1.293.299.348.196.609.464.784.802.178.339.267.72.267 1.144 0 .423-.088.806-.263 1.147a1.96 1.96 0 01-.781.806c-.346.196-.776.294-1.289.294h-1.847v-.596h1.829c.381 0 .697-.071.948-.213.251-.145.438-.341.561-.59.126-.248.188-.531.188-.848 0-.318-.062-.6-.188-.85a1.347 1.347 0 00-.564-.585c-.251-.142-.57-.213-.956-.213h-1.665V105h-.664zm6.25 0v-7.273h.664v6.676h3.466V105h-4.13zm5.625 0v-7.273h4.218v.597h-3.554v2.738h3.331v.596h-3.331v2.745h3.626V105h-4.29z" fill="#fff"/></svg>